# xmcd
#
# Track frame offsets:
#	150
#	17118
#	31167
#	46281
#	61985
#	74849
#	92683
#	109319
#	132848
#	150537
#	169951
#	188475
#	204864
#	222704
#	240527
#	257591
#	275355
#	295591
#
# Disc length: 4181 seconds
#
# Revision: 0
# Processed by: cddbd v1.5.1PL0 Copyright (c) Steve Scherf et al.
# Submitted via: audiograbber 1.83.01
#
DISCID=03105312
DTITLE=Robert Cray - The Ultimate Colelction [CD1]
DYEAR=2004
DGENRE=Blues
TTITLE0=Who's Been Talking?
TTITLE1=I'm Gonna Forget About You
TTITLE2=When The Welfare Turns Its Back On You
TTITLE3=Phonebooth
TTITLE4=Got To Make A Comeback
TTITLE5=So Many Women, So Little Time
TTITLE6=Playin' In The Dirt
TTITLE7=I've Slipped Her Mind
TTITLE8=False Accusations
TTITLE9=Right Next Door (Because Of Me)
TTITLE10=Smoking Gun
TTITLE11=I Guess I Showed Her
TTITLE12=I Wonder
TTITLE13=Nothin' But A Woman
TTITLE14=Don't Be Afraid Of The Dark
TTITLE15=Don't You Even Care
TTITLE16=Acting This Way
TTITLE17=The Forecast (Calls For Pain)
EXTD=
EXTT0=
EXTT1=
EXTT2=
EXTT3=
EXTT4=
EXTT5=
EXTT6=
EXTT7=
EXTT8=
EXTT9=
EXTT10=
EXTT11=
EXTT12=
EXTT13=
EXTT14=
EXTT15=
EXTT16=
EXTT17=
PLAYORDER=
